<svg width="231" height="46" viewBox="0 0 231 46" fill="none" xmlns="http://www.w3.org/2000/svg">
<g clip-path="url(#clip0_6622_6614)">
<path d="M38.9331 23.7426C38.8339 18.5594 40.6318 13.5185 43.9888 9.56791C46.8527 6.35842 50.6841 4.16905 54.9033 3.33105C60.6281 1.91478 66.6536 2.33632 72.1255 4.5359C75.5004 5.85232 78.4259 8.11094 80.5536 11.0428C82.6813 13.9747 83.9215 17.4563 84.1267 21.073C84.7345 25.5375 84.0113 30.082 82.0477 34.1373C80.966 36.3966 79.4235 38.4044 77.5194 40.0319C75.6153 41.6593 73.3916 42.8704 70.9915 43.5871C64.5915 45.7173 57.655 45.5922 51.3359 43.2328C48.1683 42.0827 45.3778 40.0838 43.2695 37.4548C41.1613 34.8257 39.8164 31.6676 39.382 28.3257C39.1221 26.8846 39.0985 25.3963 38.9331 23.908M78.4568 23.908C78.4568 22.3724 78.2679 20.8132 78.0553 19.1831C77.6373 15.1169 75.7866 11.3318 72.8342 8.50481C71.0744 6.98763 69.0123 5.86181 66.7844 5.202C64.5565 4.54219 62.2138 4.36346 59.9116 4.67764C56.9632 4.75906 54.1089 5.73301 51.7258 7.47083C49.3426 9.20865 47.5427 11.6286 46.5638 14.4109C44.7952 19.2676 44.4348 24.5252 45.5243 29.5778C46.0315 32.7193 47.4341 35.6477 49.5641 38.0117C51.2067 39.7102 53.2107 41.0169 55.4274 41.8349C57.6441 42.6529 60.0165 42.9611 62.3686 42.7366C65.3177 42.8241 68.2262 42.0331 70.7248 40.4642C73.2233 38.8952 75.1993 36.619 76.4015 33.9247C77.7769 30.6907 78.4763 27.2096 78.4568 23.6953" fill="white"/>
<path d="M94.6396 44.0359H88.8752C89.5603 30.5393 89.5603 17.0166 88.8752 3.51998L89.2532 3.37822C93.9781 3.37822 99.1519 3.37822 104.562 3.37822C106.777 3.37203 108.957 3.93323 110.893 5.00832C112.135 5.63423 113.181 6.58836 113.918 7.76706C114.655 8.94575 115.055 10.3039 115.075 11.694C115.222 14.1834 114.51 16.6478 113.056 18.6738C111.602 20.6998 109.495 22.1642 107.09 22.8212C105.767 23.3173 104.373 23.648 102.814 24.1205L118.949 43.9887C117.376 43.8823 115.797 43.8823 114.224 43.9887C113.547 44.0752 112.859 43.9545 112.252 43.6424C111.645 43.3303 111.146 42.8415 110.822 42.2405C106.405 36.547 101.845 30.948 97.3564 25.2781C97.033 24.9129 96.6133 24.6461 96.1454 24.5083C95.6775 24.3704 95.1802 24.367 94.7105 24.4985C94.5215 24.4985 94.2616 25.0419 94.2616 25.3254C94.2616 29.6723 94.427 34.0192 94.4979 38.3661C94.4979 40.1852 94.4979 42.0042 94.4979 43.9414M94.2616 13.8203C94.2616 16.1827 94.2616 18.5451 94.2616 20.9076C94.2616 21.7581 94.5923 22.0652 95.3483 22.0652C97.002 22.0652 98.6794 22.0652 100.333 22.0652C102.479 21.954 104.553 21.2597 106.334 20.0571C107.77 19.0515 108.859 17.6256 109.451 15.9757C110.043 14.3257 110.11 12.5328 109.641 10.8436C109.218 9.31321 108.31 7.96128 107.053 6.99024C105.797 6.01921 104.26 5.48134 102.672 5.45719C100.309 5.29182 97.4746 5.45719 95.0176 5.45719C94.3325 5.45719 94.2853 5.92967 94.2853 6.42578V13.7021" fill="white"/>
<path d="M37.2323 37.9173C37.1465 39.1507 36.9246 40.3708 36.5707 41.5555C36.3345 42.1461 35.3895 42.5713 34.6808 42.8548C30.0003 44.7962 24.9041 45.5196 19.8683 44.9574C15.3844 44.6531 11.0957 43.0067 7.55989 40.2325C5.29494 38.3392 3.45659 35.9878 2.1658 33.333C0.87502 30.6781 0.16111 27.78 0.0709785 24.8294C-0.397165 20.0559 0.547551 15.2501 2.78778 11.009C4.21823 8.46021 6.17998 6.24874 8.54004 4.52455C10.9001 2.80036 13.6033 1.60376 16.4664 1.01588C23.4126 -0.641835 30.7095 0.00495581 37.2559 2.85861L37.6811 3.04759C37.2558 4.74855 36.8306 6.37864 36.3581 8.22135C35.9565 7.86698 35.673 7.63074 35.4132 7.37087C32.4701 4.51176 28.6064 2.79226 24.5123 2.51961C20.4182 2.24696 16.3606 3.43893 13.0644 5.88253C10.0714 8.18805 7.98827 11.476 7.18196 15.1669C5.7213 20.6898 5.90191 26.5185 7.70171 31.9403C8.83121 35.3916 11.0984 38.3576 14.1324 40.3531C17.1664 42.3486 20.7877 43.2556 24.4041 42.9257C28.7246 42.6931 32.8602 41.0968 36.2164 38.3662L36.9252 37.8937C36.9252 37.8937 36.9252 37.8937 37.3032 37.8937" fill="white"/>
<path d="M144.109 40.9648V43.9887H122.847V3.52002H143.778V6.73295L139.857 6.54395L128.942 6.00058C128.257 6.00058 128.068 6.2132 128.068 6.85106C128.068 11.576 128.068 16.041 127.95 20.6478C127.95 21.3801 128.21 21.5927 128.919 21.5455C133.053 21.3565 137.211 21.2147 141.345 21.0494H142.503V24.3804L137.778 24.1678C134.754 24.1678 131.706 24.1678 128.682 23.9552C128.045 23.9552 127.832 24.1914 127.832 24.782C127.832 30.1448 127.832 35.4839 127.832 40.8467C127.832 41.5082 128.139 41.6263 128.706 41.6263C133.717 41.7694 138.732 41.5324 143.708 40.9176H144.015" fill="white"/>
<path d="M224.503 3.5437V6.78026C222.401 6.63851 220.345 6.44951 218.29 6.33139C215.408 6.18964 212.549 6.11877 209.667 6.00065C209.006 6.00065 208.769 6.18964 208.746 6.85113C208.746 11.576 208.746 16.1119 208.746 20.7423C208.746 21.451 209.1 21.5692 209.714 21.5456L221.952 21.0494H223.322V24.4041H222.755L209.738 23.9552C208.958 23.9552 208.746 24.1915 208.746 24.9238C208.746 30.1685 208.746 35.4288 208.746 40.705C208.746 41.4846 209.053 41.6264 209.785 41.6264C214.852 41.7586 219.922 41.5138 224.952 40.894V43.9888H203.69V3.5437H224.503Z" fill="white"/>
<path d="M198.351 43.9888H176.664V3.5437H182.239C182.239 5.90615 181.979 8.0796 181.932 10.3712C181.932 15.4032 181.743 20.4588 181.719 25.4909C181.696 30.5229 181.838 35.5785 181.861 40.6105C181.861 41.4137 182.145 41.6027 182.924 41.6027C187.935 41.7209 192.948 41.484 197.926 40.894H198.351V43.9652V43.9888Z" fill="white"/>
<path d="M149.732 43.9887V3.52002H155.331C155.331 3.75626 155.331 4.11063 155.331 4.44137C154.48 15.7575 154.835 27.0972 154.929 38.437C154.929 39.193 154.929 39.9489 154.929 40.7994C154.929 41.6499 155.118 41.7208 155.803 41.6735L170.64 40.9884H171.561V44.0832L149.732 43.9887Z" fill="white"/>
<path d="M228.779 45.0045C228.197 45.0045 227.638 44.773 227.226 44.361C226.814 43.949 226.582 43.3901 226.582 42.8074C226.582 42.2247 226.814 41.6659 227.226 41.2538C227.638 40.8418 228.197 40.6104 228.779 40.6104C229.362 40.6104 229.921 40.8418 230.333 41.2538C230.745 41.6659 230.976 42.2247 230.976 42.8074C230.976 43.3901 230.745 43.949 230.333 44.361C229.921 44.773 229.362 45.0045 228.779 45.0045ZM229.583 44.154L228.708 43.1618L228.26 44.0123H227.952C227.952 43.4689 227.952 42.9255 227.952 42.3822C227.952 41.8388 228.165 41.5081 228.756 41.6262C229.346 41.7443 229.677 41.9333 229.583 42.6184C229.582 43.1336 229.63 43.6476 229.724 44.154C230.528 43.1145 230.504 42.2877 229.913 41.7916C229.626 41.5345 229.257 41.3861 228.871 41.3721C228.486 41.3581 228.108 41.4793 227.802 41.7148C227.496 41.9503 227.283 42.2853 227.198 42.6617C227.113 43.0382 227.163 43.4323 227.338 43.776C227.693 44.4611 228.543 44.6738 229.583 44.3194" fill="white"/>
</g>
<defs>
<clipPath id="clip0_6622_6614">
<rect width="231" height="45.0755" fill="white"/>
</clipPath>
</defs>
</svg>
