<svg width="301" height="39" viewBox="0 0 301 39" fill="none" xmlns="http://www.w3.org/2000/svg">
<g clip-path="url(#clip0_6466_8114)">
<path d="M27.4281 21.8002L19.4794 0.952148H13.8615L0 38.0903L8.41965 38.0102L16.6347 16.8934L24.6072 38.0102H30.5533L44.2008 0.952148H34.9534L27.4281 21.8002Z" fill="white"/>
<path d="M81.19 0C75.6435 0 71.0325 1.86814 67.3571 5.60442C63.6816 9.34071 61.8423 14.0354 61.8391 19.6885C61.8391 25.2097 63.6832 29.8023 67.3713 33.4663C71.0595 37.1303 75.8386 38.9639 81.7085 38.967C85.4886 38.967 88.7534 38.3024 91.5029 36.9732C94.3534 35.5637 96.7919 33.4541 98.5859 30.8455L90.68 27.169C89.4961 28.3446 88.0862 29.2729 86.5338 29.8987C84.9813 30.5246 83.3178 30.8353 81.6419 30.8125C78.7117 30.8125 76.3 30.027 74.4067 28.4558C72.4958 26.8644 71.2525 24.624 70.92 22.1726H101.064L101.097 20.4003C101.097 14.2664 99.2534 9.33285 95.5653 5.59971C91.8771 1.86657 87.0854 0 81.19 0ZM71.3243 14.8524C72.3803 12.5554 73.5283 10.9543 74.7683 10.0493C76.7597 8.5919 79.1809 7.82643 81.6562 7.87165C83.9283 7.8279 86.1545 8.50868 88.0066 9.81363C89.7756 11.0273 91.0703 12.8061 91.6742 14.8524H71.3243Z" fill="white"/>
<path d="M224.757 0.952148L216.542 22.0736L208.569 0.952148H202.619L188.976 38.0102H198.218L205.749 17.1668L213.692 38.0102H219.315L227.407 16.9264L234.927 38.0102H244.108L230.636 0.952148H224.757Z" fill="white"/>
<path d="M141.022 31.7789C136.341 22.3235 131.641 12.8775 126.923 3.44097C125.434 0.471429 123.07 -0.61269 120.634 0.494996C118.199 1.60268 117.647 4.06316 119.197 7.15054C123.022 14.8965 126.866 22.6346 130.728 30.3648C131.808 32.5331 132.821 34.739 134.025 36.8365C135.085 38.722 136.798 39.3913 138.943 38.7785C141.003 38.1893 141.907 36.78 141.835 34.0933C141.628 33.3012 141.356 32.5272 141.022 31.7789Z" fill="white"/>
<path d="M175.671 0.26398C173.254 -0.428913 171.513 0.59393 170.438 2.62076C168.431 6.45289 166.524 10.3369 164.678 14.2491C163.413 16.9453 164.202 19.368 166.49 20.4616C168.778 21.5551 171.19 20.7821 172.579 18.1331C174.591 14.301 176.461 10.3981 178.349 6.50945C178.567 5.95382 178.727 5.37725 178.825 4.789C178.744 2.39451 177.821 0.876743 175.671 0.26398Z" fill="white"/>
<path d="M161.643 31.7789C156.965 22.3235 152.266 12.8775 147.544 3.44097C146.059 0.471429 143.695 -0.61269 141.26 0.494996C138.824 1.60268 138.272 4.08673 139.799 7.17411C143.637 14.9043 147.486 22.6346 151.349 30.3648C152.429 32.5331 153.442 34.739 154.646 36.8365C155.711 38.722 157.419 39.3913 159.564 38.7785C161.624 38.1893 162.528 36.78 162.456 34.0933C162.249 33.3012 161.977 32.5272 161.643 31.7789Z" fill="white"/>
<path d="M301 20.405C301 14.2711 299.156 9.33756 295.468 5.60442C291.78 1.87128 286.991 0.00314237 281.102 0C275.556 0 270.943 1.86814 267.264 5.60442C263.586 9.34071 261.746 14.0354 261.746 19.6885C261.746 25.2097 263.592 29.8023 267.283 33.4663C270.975 37.1303 275.752 38.9639 281.616 38.967C285.396 38.967 288.661 38.3024 291.41 36.9732C294.262 35.5651 296.7 33.4552 298.493 30.8455L290.587 27.169C289.404 28.3451 287.994 29.2736 286.441 29.8995C284.889 30.5254 283.225 30.8359 281.549 30.8125C278.616 30.8125 276.202 30.027 274.309 28.4558C272.398 26.8644 271.155 24.624 270.822 22.1726H300.967L301 20.405ZM286.002 14.5508C284.969 14.6639 283.956 14.8524 282.924 14.9703C280.954 15.2151 278.957 14.8391 277.216 13.8956C276.115 13.2709 275.287 12.2629 274.894 11.0674C278.491 9.60152 282.12 9.72879 285.835 10.8318C281.468 8.5504 272.454 8.71066 267.973 16.8887C268.035 16.7426 268.097 16.6012 268.163 16.4598C270.171 12.1751 275.189 7.50399 281.906 7.70667C288.309 7.89521 293.827 12.0714 295.135 17.6711C291.753 14.942 289.712 14.1595 286.002 14.5508Z" fill="white"/>
</g>
<defs>
<clipPath id="clip0_6466_8114">
<rect width="301" height="39" fill="white"/>
</clipPath>
</defs>
</svg>
