<svg width="71" height="56" viewBox="0 0 71 56" fill="none" xmlns="http://www.w3.org/2000/svg">
<g id="Frame" clip-path="url(#clip0_6607_5792)">
<g id="Group">
<path id="Vector" d="M68.3656 42.0824L13.0621 55.9082C12.1598 56.1238 11.2091 55.9731 10.4174 55.4887C9.62565 55.0043 9.05722 54.2257 8.83614 53.3228L0.0914861 18.1348C-0.131251 17.2282 0.0105517 16.2702 0.486285 15.4675C0.962019 14.6648 1.73354 14.0816 2.63439 13.844L57.9196 0.0365937C58.3665 -0.0726845 58.8305 -0.0924928 59.285 -0.0216036C59.7396 0.0492856 60.1757 0.20947 60.5683 0.449682C60.9609 0.689894 61.3024 1.00548 61.573 1.37826C61.8437 1.75105 62.0383 2.17367 62.1456 2.62201L70.9451 37.81C71.173 38.712 71.0354 39.6678 70.5623 40.4683C70.0892 41.2689 69.3192 41.8492 68.4205 42.0824" fill="#FF0000"/>
<path id="Vector_2" d="M15.2209 38.8368L14.6355 39.0203C13.7368 38.848 12.9061 38.4214 12.2416 37.7911C11.577 37.1607 11.1063 36.3529 10.8852 35.463C10.6725 34.5654 10.7105 33.6264 10.9949 32.7491C11.9001 32.9668 12.7365 33.4081 13.4281 34.0327C13.4281 34.3077 13.4281 34.5828 13.4281 34.9129C13.4401 35.1438 13.4832 35.372 13.5561 35.5913C13.5561 35.5913 13.5561 35.5913 13.5561 35.4079C13.5613 34.8548 13.6102 34.303 13.7025 33.7577C13.9717 32.4756 14.5786 31.2892 15.4601 30.3218C16.3416 29.3544 17.4656 28.6413 18.7151 28.2567C19.0767 28.8813 19.3477 29.5542 19.5201 30.2553C19.9665 31.9864 19.7666 33.8214 18.9581 35.4152C18.1495 37.009 16.788 38.2519 15.1295 38.9103M19.392 26.0746C17.4075 26.5766 15.6915 27.8238 14.5989 29.5585C13.7939 30.6866 13.3649 32.0407 13.3732 33.4276C13.0136 32.9751 12.5881 32.5795 12.1109 32.2541C11.5502 31.901 10.9304 31.6524 10.2815 31.5206C10.2815 31.5206 9.27529 32.6024 9.89729 35.1879C10.2519 36.2392 10.8824 37.1753 11.7225 37.8981C12.5627 38.6208 13.5816 39.1034 14.6721 39.2953L15.5136 39.0019L16.282 38.6902C18.1284 37.9722 19.63 36.5719 20.4774 34.7776C21.3248 32.9833 21.4536 30.9317 20.8372 29.0452C20.5584 27.9556 20.0875 26.9248 19.4469 26.0012" fill="white"/>
<path id="Vector_3" d="M50.8215 20.6102C50.8215 20.4451 50.73 20.4269 50.6751 20.4452L45.3332 21.8021C44.5283 22.0038 43.9246 22.2422 43.9246 22.3889L44.5283 31.2271C44.5283 31.2271 44.5283 31.2271 44.6563 31.2271C45.1334 31.2328 45.6085 31.1648 46.065 31.0254L51.1325 29.7602C51.1325 29.7602 51.1325 29.7602 51.1325 29.6318C51.1955 29.2925 51.1955 28.9444 51.1325 28.605C51.1245 28.2852 51.0626 27.969 50.9496 27.6698C50.9496 27.5048 50.8398 27.4864 50.7849 27.4864L47.1261 28.4032L47.0163 26.9547L49.9983 26.2029C49.9983 26.2029 50.0897 26.2029 50.108 26.0745C50.1554 25.7585 50.1554 25.4371 50.108 25.121C50.1006 24.8147 50.045 24.5115 49.9434 24.2225C49.9434 24.0575 49.8336 24.0391 49.7787 24.0574L46.8151 24.791L46.7236 23.5074L50.3824 22.5722C50.3824 22.5722 50.3824 22.5722 50.4739 22.4438C50.5327 22.1225 50.5327 21.7933 50.4739 21.472C50.4652 21.1718 50.4096 20.8749 50.3093 20.5919" fill="white"/>
<path id="Vector_4" d="M40.3388 32.2173C40.3388 32.2173 40.3388 32.2173 40.5035 32.2173C41.0426 32.2134 41.5784 32.1331 42.0951 31.979C42.6791 31.8663 43.2452 31.6751 43.7781 31.4105C43.7781 31.4105 43.9062 31.4106 43.7781 31.2456L40.412 26.9914L42.8085 22.5906C42.8085 22.5906 42.8085 22.4989 42.8085 22.4806C42.2824 22.455 41.7559 22.5232 41.2535 22.6823C40.7752 22.7816 40.3132 22.9483 39.8815 23.1774C39.8281 23.2111 39.789 23.2634 39.7717 23.3241L37.6679 27.3031L37.4483 24.0026C37.4483 24.0026 37.3569 24.0026 37.2837 23.9109C36.7948 23.9253 36.3095 23.9992 35.8384 24.1309C35.4181 24.2315 35.0123 24.3856 34.631 24.5894C34.631 24.5894 34.5212 24.5893 34.5212 24.736L35.125 33.5193C35.125 33.5193 35.125 33.5193 35.2164 33.6293C35.6925 33.6392 36.1673 33.5773 36.6251 33.4459C37.103 33.3558 37.5612 33.1821 37.9789 32.9325L37.7045 28.7517L40.3388 32.2173Z" fill="white"/>
<path id="Vector_5" d="M60.6454 18.1348C60.1557 18.139 59.6691 18.2131 59.2002 18.3549C58.7828 18.4567 58.3779 18.6043 57.9927 18.7949L55.523 24.2959V23.9291L55.2303 19.6384C55.2303 19.6384 55.1205 19.6384 55.0474 19.6384C54.5645 19.6532 54.0853 19.7271 53.6204 19.8585C53.1989 19.9551 52.7926 20.1094 52.413 20.3169C52.413 20.3169 52.3032 20.3169 52.3032 20.4636L52.9069 29.2468C52.9069 29.2468 52.9069 29.2468 52.9069 29.3568C53.377 29.3674 53.8459 29.3056 54.2973 29.1735C54.7772 29.0799 55.24 28.9128 55.6694 28.6784L58.1391 23.0857V23.4341L58.4318 27.6699C58.4318 27.6699 58.4318 27.6699 58.5233 27.6699C58.9986 27.6892 59.4739 27.6335 59.9319 27.5048C60.4073 27.4059 60.8641 27.2327 61.2857 26.9914C61.2857 26.9914 61.2857 26.9914 61.2857 26.8814L60.682 18.0615C60.682 18.0615 60.5905 18.0615 60.5174 18.0615" fill="white"/>
<path id="Vector_6" d="M56.7487 16.6311C56.4824 16.6996 56.2247 16.7981 55.9804 16.9245C55.9804 16.9245 55.8523 17.0345 55.8523 17.0895L55.9438 19.8767C56.0709 19.899 56.2008 19.899 56.3279 19.8767L56.7121 19.7483C56.7121 19.7483 56.7121 19.7484 56.8036 19.6383L57.7 16.6678C57.7119 16.6519 57.7183 16.6326 57.7183 16.6127C57.7183 16.5929 57.7119 16.5737 57.7 16.5578C57.3952 16.4697 57.0718 16.4697 56.767 16.5578" fill="white"/>
<path id="Vector_7" d="M33.2224 22.5173C32.9508 22.5681 32.6905 22.6675 32.454 22.8106C32.4196 22.8238 32.3895 22.8461 32.367 22.8752C32.3444 22.9043 32.3302 22.9391 32.3259 22.9757L32.4174 25.7628C32.5441 25.789 32.6748 25.789 32.8016 25.7628C32.9369 25.7356 33.0667 25.6861 33.1858 25.6162C33.2076 25.6049 33.2269 25.5893 33.2427 25.5704C33.2584 25.5515 33.2701 25.5297 33.2772 25.5062L34.1736 22.5539C34.1849 22.5344 34.1908 22.5123 34.1908 22.4898C34.1908 22.4672 34.1849 22.4451 34.1736 22.4256C33.8671 22.351 33.5472 22.351 33.2406 22.4256" fill="white"/>
<path id="Vector_8" d="M26.8743 32.034C27.1121 32.8592 27.6244 33.5193 28.7037 33.2809C30.1307 32.9142 30.6612 31.0439 30.1673 29.2835C29.9112 28.4034 29.3258 27.7799 28.3379 28.0183C26.6731 28.4401 26.5084 30.6771 26.9475 32.034M33.0395 28.2751C33.271 29.0323 33.3452 29.8291 33.2574 30.6163C33.1696 31.4034 32.9217 32.1641 32.5291 32.8515C32.1365 33.5388 31.6075 34.1382 30.9747 34.6126C30.3419 35.087 29.6189 35.4264 28.8501 35.6097C28.3743 35.7852 27.8674 35.8596 27.3614 35.8283C26.8553 35.797 26.3613 35.6607 25.9107 35.4279C25.46 35.1952 25.0625 34.8712 24.7434 34.4763C24.4243 34.0815 24.1906 33.6244 24.057 33.1342C23.8137 32.3796 23.7297 31.5826 23.8101 30.7937C23.8905 30.0048 24.1337 29.2412 24.5242 28.5515C24.9147 27.8618 25.444 27.2611 26.0784 26.7873C26.7129 26.3136 27.4387 25.9772 28.2098 25.7995C28.6913 25.6187 29.2055 25.5416 29.7187 25.5734C30.2319 25.6051 30.7327 25.7449 31.1884 25.9837C31.6442 26.2224 32.0445 26.5548 32.3635 26.9591C32.6824 27.3634 32.9128 27.8305 33.0395 28.33" fill="white"/>
</g>
</g>
<defs>
<clipPath id="clip0_6607_5792">
<rect width="71" height="56" fill="white"/>
</clipPath>
</defs>
</svg>
