<svg width="21" height="21" viewBox="0 0 21 21" fill="none" xmlns="http://www.w3.org/2000/svg">
<path id="Vector" d="M20.9689 6.11692C20.9575 4.19493 20.594 2.29122 19.8961 0.500002C16.3663 0.498297 12.9696 1.8459 10.4032 4.26624C8.56691 5.77588 7.26724 7.83678 6.69712 10.1429C5.81852 8.16594 4.22907 6.59027 2.24319 5.72732C2.24319 5.72732 0.0650197 7.09088 0 11.7337C0.170022 13.6291 0.848576 15.4437 1.9642 16.9864C3.07983 18.5291 4.5913 19.7429 6.33946 20.5H7.83488H9.29787C12.6805 20.092 15.7773 18.4026 17.9491 15.7806C20.1208 13.1586 21.2017 9.80398 20.9689 6.40911V6.11692ZM18.3681 7.5779C18.369 10.644 17.2501 13.6051 15.2212 15.9063C13.1924 18.2075 10.3928 19.6907 7.34726 20.0779H6.27448C4.84398 19.432 3.63137 18.3861 2.7833 17.0667C1.93522 15.7472 1.48797 14.2107 1.49552 12.6428C1.50157 11.0675 1.95226 9.52585 2.7959 8.19479C4.23739 8.95414 5.45801 10.0725 6.33946 11.4415C6.33946 11.8961 6.14444 12.3507 6.07942 12.9026C6.02659 13.3013 6.02659 13.7052 6.07942 14.1039C6.07942 14.1039 6.07938 14.1039 6.24193 13.8117C6.4628 12.8982 6.76751 12.007 7.15221 11.1493C8.13661 9.11683 9.65391 7.38853 11.5428 6.14803C13.4318 4.90753 15.6218 4.20121 17.8804 4.10395C18.2117 5.27576 18.3652 6.49052 18.3356 7.70779L18.3681 7.5779Z" fill="white"/>
</svg>
