<svg width="81" height="61" viewBox="0 0 81 61" fill="none" xmlns="http://www.w3.org/2000/svg">
<g id="Group 2541">
<g id="Group 2536">
<g id="Group 2535">
<path id="Vector" d="M35.6104 14.623C30.4171 19.0504 29.4395 24.5231 29.4395 24.5231C29.4395 24.5231 28.4314 22.2172 26.7206 20.3724C24.7044 18.2202 21.9855 17.0519 21.9855 17.0519C21.9855 17.0519 18.3808 19.3271 18.2891 27.1365C18.1669 37.1904 28.8285 41.8638 28.8285 41.8638C29.6839 41.833 30.5088 41.7408 31.3642 41.6486C32.1584 41.5563 32.9832 41.4641 33.7775 41.3411C45.6916 39.5886 53.3594 30.3956 53.2372 17.6975C53.1761 12.2555 51.4349 8.25858 51.4349 8.25858C51.4349 8.25858 43.2172 7.70515 35.6104 14.623Z" stroke="white" stroke-width="1.281" stroke-miterlimit="10" stroke-linecap="round" stroke-linejoin="round"/>
<path id="Vector_2" d="M80 25.4451V7.33577C80 4.04597 77.3422 1.37109 74.0735 1.37109H6.92654C3.65778 1.37109 1 4.04597 1 7.33577V43.5236C1 46.8134 3.65778 49.4883 6.92654 49.4883H55.3355M80 25.4451L67.6844 26.2281C63.9797 26.2281 59.6576 27.4709 58.4227 33.0637L55.3355 49.4883M80 25.4451L55.3355 49.4883" stroke="white" stroke-width="1.281" stroke-miterlimit="10" stroke-linecap="round" stroke-linejoin="round"/>
</g>
<path id="Vector_3" d="M79.9998 29.5552V48.6313C79.9998 51.8304 77.3651 54.4016 74.1247 54.4016H7.56116C4.97028 54.4016 2.7666 52.7387 1.9873 50.4368" stroke="white" stroke-width="1.281" stroke-miterlimit="10" stroke-linecap="round" stroke-linejoin="round"/>
<path id="Vector_4" d="M79.9998 54.8984C79.5061 56.8862 77.3651 59.3708 74.1247 59.3708H7.56116C4.97028 59.3708 2.7666 57.7079 1.9873 55.4059" stroke="white" stroke-width="1.281" stroke-miterlimit="10" stroke-linecap="round" stroke-linejoin="round"/>
</g>
</g>
</svg>
