<svg width="76" height="130" viewBox="0 0 76 130" fill="none" xmlns="http://www.w3.org/2000/svg">
<g id="Group 2540">
<path id="Vector" d="M37.9027 55.8409C34.5974 58.6383 33.9753 62.0962 33.9753 62.0962C33.9753 62.0962 33.3336 60.6392 32.2448 59.4736C30.9616 58.1138 29.2312 57.3756 29.2312 57.3756C29.2312 57.3756 26.9369 58.8131 26.8786 63.7474C26.8008 70.0998 33.5864 73.0526 33.5864 73.0526C34.1308 73.0332 34.6558 72.9749 35.2002 72.9166C35.7057 72.8583 36.2306 72.8001 36.7361 72.7224C44.3189 71.6151 49.1991 65.8066 49.1213 57.7835C49.0824 54.3451 47.9742 51.8196 47.9742 51.8196C47.9742 51.8196 42.744 51.47 37.9027 55.8409Z" stroke="white" stroke-width="1.281" stroke-miterlimit="10" stroke-linecap="round" stroke-linejoin="round"/>
<path id="Vector_2" d="M59.3484 77.87H16.6128C14.5324 77.87 12.8408 76.1799 12.8408 74.1013V51.2365C12.8408 49.1579 14.5324 47.4678 16.6128 47.4678H59.3484C61.4288 47.4678 63.1204 49.1579 63.1204 51.2365V74.1207C63.1204 76.1993 61.4288 77.87 59.3484 77.87Z" stroke="white" stroke-width="1.281" stroke-miterlimit="10" stroke-linecap="round" stroke-linejoin="round"/>
<path id="Vector_3" d="M29.8145 12.5975H46.1466M43.969 115.965C43.969 119.209 41.2859 121.832 37.9806 121.832C34.6753 121.832 31.9921 119.209 31.9921 115.965C31.9921 112.74 34.6753 110.118 37.9806 110.118C41.2859 110.118 43.969 112.74 43.969 115.965ZM74.9805 103.396H1V22.2524H74.9805V103.396ZM66.8534 129H9.14662C4.65529 129 1 125.426 1 121.035V8.96479C1 4.55502 4.65529 1 9.14662 1H66.8534C71.3448 1 75 4.57445 75 8.96479V121.035C74.9806 125.445 71.3448 129 66.8534 129Z" stroke="white" stroke-width="1.461" stroke-miterlimit="10" stroke-linecap="round" stroke-linejoin="round"/>
</g>
</svg>
